<svg width="34" height="23" viewBox="0 0 34 23" fill="none" xmlns="http://www.w3.org/2000/svg">
<g id="Logo">
<path id="Vector" d="M21.8287 11.2653C21.8287 17.0981 17.1369 21.8265 11.3493 21.8265C5.5617 21.8265 0.869865 17.0981 0.869865 11.2653C0.869865 5.4325 5.5617 0.704079 11.3493 0.704079C17.1369 0.704079 21.8287 5.4325 21.8287 11.2653Z" fill="#68DBFF"/>
<path id="Vector_2" d="M33.1302 11.2653C33.1302 17.0981 28.4843 21.8265 22.7534 21.8265C17.0225 21.8265 12.3767 17.0981 12.3767 11.2653C12.3767 5.4325 17.0225 0.704079 22.7534 0.704079C28.4843 0.704079 33.1302 5.4325 33.1302 11.2653Z" fill="#FF7917"/>
<path id="Vector_3" d="M17.0794 20.1093C19.9393 18.2235 21.8287 14.9668 21.8287 11.2653C21.8287 7.5639 19.9393 4.30717 17.0794 2.42136C14.2476 4.30717 12.3767 7.5639 12.3767 11.2653C12.3767 14.9668 14.2476 18.2235 17.0794 20.1093Z" fill="#5D2C02"/>
</g>
</svg>
