<svg width="189" height="61" viewBox="0 0 189 61" fill="none" xmlns="http://www.w3.org/2000/svg">
<g id="App Store">
<rect id="BG" width="189" height="61" rx="10" fill="#2B2B2B"/>
<path id="Vector" d="M73.4253 44.502L71.6979 40.0633H64.6536L62.9711 44.502H60.6155L66.9419 28.6079H69.4769L75.8033 44.502H73.4253ZM68.1533 30.8945L65.4388 38.0233H70.9127L68.1533 30.8945ZM79.8051 48.7613H77.7187V33.7191H79.7602V35.4004C80.0743 34.8325 80.5454 34.3692 81.1736 34.0105C81.8017 33.6518 82.5345 33.4725 83.3721 33.4725C84.9275 33.4725 86.1389 34.0031 87.0064 35.0642C87.8888 36.1253 88.33 37.4703 88.33 39.0993C88.33 40.7433 87.8738 42.1033 86.9615 43.1793C86.0642 44.2554 84.8452 44.7934 83.3048 44.7934C82.5121 44.7934 81.8092 44.629 81.196 44.3002C80.5828 43.9714 80.1192 43.553 79.8051 43.0448V48.7613ZM86.1763 39.0993C86.1763 38.0083 85.8847 37.1116 85.3014 36.4092C84.7331 35.6918 83.9628 35.3332 82.9907 35.3332C82.0335 35.3332 81.2558 35.6918 80.6576 36.4092C80.0743 37.1116 79.7826 38.0083 79.7826 39.0993C79.7826 40.2202 80.0743 41.1393 80.6576 41.8567C81.2558 42.5591 82.0335 42.9103 82.9907 42.9103C83.9479 42.9103 84.7181 42.5591 85.3014 41.8567C85.8847 41.1393 86.1763 40.2202 86.1763 39.0993ZM93.1034 48.7613H91.017V33.7191H93.0585V35.4004C93.3726 34.8325 93.8437 34.3692 94.4719 34.0105C95.1 33.6518 95.8328 33.4725 96.6704 33.4725C98.2258 33.4725 99.4372 34.0031 100.305 35.0642C101.187 36.1253 101.628 37.4703 101.628 39.0993C101.628 40.7433 101.172 42.1033 100.26 43.1793C99.3625 44.2554 98.1435 44.7934 96.6031 44.7934C95.8104 44.7934 95.1075 44.629 94.4943 44.3002C93.8811 43.9714 93.4175 43.553 93.1034 43.0448V48.7613ZM99.4746 39.0993C99.4746 38.0083 99.183 37.1116 98.5997 36.4092C98.0314 35.6918 97.2611 35.3332 96.289 35.3332C95.3318 35.3332 94.5541 35.6918 93.9559 36.4092C93.3726 37.1116 93.081 38.0083 93.081 39.0993C93.081 40.2202 93.3726 41.1393 93.9559 41.8567C94.5541 42.5591 95.3318 42.9103 96.289 42.9103C97.2462 42.9103 98.0164 42.5591 98.5997 41.8567C99.183 41.1393 99.4746 40.2202 99.4746 39.0993ZM120.289 32.2171L118.315 32.9121C118.21 32.2246 117.873 31.6044 117.305 31.0514C116.737 30.4835 115.952 30.1995 114.949 30.1995C114.067 30.1995 113.334 30.4536 112.751 30.9617C112.167 31.4699 111.875 32.0976 111.875 32.8448C111.875 33.4277 112.047 33.9209 112.391 34.3244C112.751 34.7279 113.259 35.0044 113.917 35.1538L116.295 35.6694C117.612 35.9534 118.629 36.4914 119.347 37.2835C120.064 38.0606 120.423 39.0097 120.423 40.1305C120.423 41.4158 119.915 42.5218 118.898 43.4484C117.881 44.375 116.557 44.8383 114.927 44.8383C113.147 44.8383 111.748 44.375 110.731 43.4484C109.729 42.5068 109.146 41.3934 108.981 40.1081L111.09 39.4356C111.18 40.3921 111.554 41.1991 112.212 41.8567C112.871 42.5143 113.768 42.8431 114.905 42.8431C115.952 42.8431 116.759 42.604 117.327 42.1257C117.896 41.6475 118.18 41.0422 118.18 40.3099C118.18 39.7121 117.978 39.1965 117.574 38.7631C117.17 38.3147 116.58 38.0083 115.802 37.8439L113.536 37.3508C112.354 37.0967 111.412 36.596 110.709 35.8488C110.006 35.1015 109.655 34.1525 109.655 33.0017C109.655 31.7463 110.163 30.6479 111.18 29.7063C112.212 28.7498 113.454 28.2716 114.905 28.2716C116.535 28.2716 117.784 28.6677 118.651 29.4597C119.519 30.2518 120.064 31.171 120.289 32.2171ZM125.83 30.3116V33.7191H128.163V35.6246H125.83V41.229C125.83 41.7371 125.942 42.1108 126.166 42.3499C126.406 42.589 126.795 42.7086 127.333 42.7086C127.647 42.7086 127.924 42.6787 128.163 42.6189V44.4123C127.804 44.5468 127.326 44.6141 126.727 44.6141C125.8 44.6141 125.067 44.3451 124.529 43.807C123.99 43.269 123.721 42.5143 123.721 41.5429V35.6246H121.657V33.7191H122.24C122.794 33.7191 123.205 33.5696 123.474 33.2707C123.759 32.9569 123.901 32.5534 123.901 32.0602V30.3116H125.83ZM133.089 41.9464C133.747 42.6189 134.547 42.9552 135.489 42.9552C136.432 42.9552 137.224 42.6189 137.867 41.9464C138.525 41.2589 138.854 40.3099 138.854 39.0993C138.854 37.9037 138.525 36.9697 137.867 36.2971C137.224 35.6097 136.432 35.2659 135.489 35.2659C134.547 35.2659 133.747 35.6097 133.089 36.2971C132.446 36.9697 132.124 37.9037 132.124 39.0993C132.124 40.3099 132.446 41.2589 133.089 41.9464ZM131.519 35.0193C132.565 33.9283 133.889 33.3828 135.489 33.3828C137.09 33.3828 138.406 33.9283 139.438 35.0193C140.485 36.0954 141.008 37.4554 141.008 39.0993C141.008 40.7582 140.492 42.1332 139.46 43.2242C138.428 44.3002 137.105 44.8383 135.489 44.8383C133.874 44.8383 132.55 44.3002 131.519 43.2242C130.487 42.1332 129.971 40.7582 129.971 39.0993C129.971 37.4554 130.487 36.0954 131.519 35.0193ZM149.696 33.607V35.8488C149.382 35.8039 149.076 35.7815 148.777 35.7815C146.802 35.7815 145.815 36.8875 145.815 39.0993V44.502H143.707V33.7191H145.77V35.6022C146.429 34.2272 147.505 33.5398 149.001 33.5398C149.24 33.5398 149.472 33.5622 149.696 33.607ZM153.203 38.0009H159.103C159.073 37.1938 158.804 36.5362 158.295 36.0281C157.787 35.505 157.069 35.2435 156.141 35.2435C155.304 35.2435 154.616 35.52 154.077 36.073C153.539 36.611 153.247 37.2536 153.203 38.0009ZM159.417 40.8031L161.234 41.4308C160.92 42.4321 160.337 43.2541 159.484 43.8967C158.632 44.5244 157.6 44.8383 156.388 44.8383C154.878 44.8383 153.591 44.3226 152.53 43.2914C151.483 42.2453 150.959 40.8404 150.959 39.0769C150.959 37.433 151.468 36.073 152.485 34.9969C153.502 33.9209 154.713 33.3828 156.119 33.3828C157.749 33.3828 159.02 33.8984 159.933 34.9297C160.845 35.9459 161.301 37.3134 161.301 39.0321C161.301 39.3011 161.286 39.5253 161.256 39.7046H153.135C153.15 40.6611 153.464 41.4457 154.077 42.0585C154.706 42.6712 155.476 42.9776 156.388 42.9776C157.929 42.9776 158.938 42.2527 159.417 40.8031Z" fill="white"/>
<path id="Vector_2" opacity="0.6" d="M62.2627 18.856V14.9874H63.2114C64.2027 14.9874 65.0232 15.6108 65.0232 16.926C65.0232 18.2412 64.1942 18.856 63.2028 18.856H62.2627ZM63.2456 19.9492C64.9719 19.9492 66.2453 18.839 66.2453 16.926C66.2453 15.013 64.9804 13.8943 63.2541 13.8943H61.0833V19.9492H63.2456ZM69.1992 16.9175C69.1992 15.551 70.1564 14.902 71.0879 14.902C72.028 14.902 72.9852 15.551 72.9852 16.9175C72.9852 18.2839 72.028 18.9329 71.0879 18.9329C70.1564 18.9329 69.1992 18.2839 69.1992 16.9175ZM67.9771 16.926C67.9771 18.8731 69.447 20.0773 71.0879 20.0773C72.7374 20.0773 74.2073 18.8731 74.2073 16.926C74.2073 14.9703 72.7374 13.7662 71.0879 13.7662C69.447 13.7662 67.9771 14.9703 67.9771 16.926ZM81.781 18.0789L80.4307 13.8943H79.2086L77.8668 18.0618L76.7558 13.8943H75.5081L77.1917 19.9492H78.4223L79.8068 15.6364L81.1913 19.9492H82.4049L84.0799 13.8943H82.8749L81.781 18.0789ZM91.1164 19.9492V13.8943H89.937V17.8996L87.4159 13.8943H85.9459V19.9492H87.1253V15.6535L89.8772 19.9492H91.1164ZM97.4459 19.9492V18.8219H94.7453V13.8943H93.5659V19.9492H97.4459ZM100.079 16.9175C100.079 15.551 101.036 14.902 101.968 14.902C102.908 14.902 103.865 15.551 103.865 16.9175C103.865 18.2839 102.908 18.9329 101.968 18.9329C101.036 18.9329 100.079 18.2839 100.079 16.9175ZM98.8571 16.926C98.8571 18.8731 100.327 20.0773 101.968 20.0773C103.617 20.0773 105.087 18.8731 105.087 16.926C105.087 14.9703 103.617 13.7662 101.968 13.7662C100.327 13.7662 98.8571 14.9703 98.8571 16.926ZM110.997 19.9492H112.279L109.971 13.8943H108.604L106.279 19.9492H107.527L108.031 18.5657H110.493L110.997 19.9492ZM109.262 15.2009L110.099 17.4896H108.424L109.262 15.2009ZM115.301 18.856V14.9874H116.249C117.241 14.9874 118.061 15.6108 118.061 16.926C118.061 18.2412 117.232 18.856 116.241 18.856H115.301ZM116.284 19.9492C118.01 19.9492 119.283 18.839 119.283 16.926C119.283 15.013 118.019 13.8943 116.292 13.8943H114.121V19.9492H116.284ZM125.417 16.9175C125.417 15.551 126.375 14.902 127.306 14.902C128.246 14.902 129.203 15.551 129.203 16.9175C129.203 18.2839 128.246 18.9329 127.306 18.9329C126.375 18.9329 125.417 18.2839 125.417 16.9175ZM124.195 16.926C124.195 18.8731 125.665 20.0773 127.306 20.0773C128.956 20.0773 130.426 18.8731 130.426 16.926C130.426 14.9703 128.956 13.7662 127.306 13.7662C125.665 13.7662 124.195 14.9703 124.195 16.926ZM137.687 19.9492V13.8943H136.507V17.8996L133.986 13.8943H132.516V19.9492H133.696V15.6535L136.448 19.9492H137.687ZM147.778 15.013V13.8943H142.761V15.013H144.675V19.9492H145.863V15.013H147.778ZM154.684 19.9492V13.8943H153.496V16.3282H150.855V13.8943H149.676V19.9492H150.855V17.4384H153.496V19.9492H154.684ZM160.931 19.9492V18.839H158.316V17.4384H160.684V16.388H158.316V15.0045H160.931V13.8943H157.137V19.9492H160.931Z" fill="white"/>
<path id="Vector_3" d="M46.3686 38.1151C45.6748 39.6503 45.3437 40.3355 44.4504 41.6919C43.2058 43.5861 41.4498 45.9453 39.2738 45.9652C37.3409 45.9833 36.8442 44.7082 34.2202 44.7236C31.5962 44.739 31.0494 45.988 29.1164 45.9699C26.9404 45.9506 25.278 43.8202 24.032 41.9247C20.5494 36.6272 20.1856 30.411 22.3335 27.1064C23.8598 24.7565 26.2688 23.3835 28.5329 23.3835C30.8384 23.3835 32.288 24.6465 34.1948 24.6465C36.0443 24.6465 37.1706 23.3815 39.8367 23.3815C41.8518 23.3815 43.9869 24.4777 45.5086 26.3718C40.523 29.1013 41.3336 36.2129 46.3686 38.1151Z" fill="white"/>
<path id="Vector_4" d="M38.0953 20.0664C39.0641 18.824 39.7985 17.0714 39.5314 15.2786C37.9491 15.3868 36.0996 16.3929 35.0193 17.7039C34.0385 18.8935 33.2286 20.6582 33.5437 22.3735C35.2697 22.4276 37.0571 21.3967 38.0953 20.0664Z" fill="white"/>
</g>
</svg>
