<svg width="16" height="13" viewBox="0 0 16 13" fill="none" xmlns="http://www.w3.org/2000/svg">
<g id="icons">
<path id="Vector" d="M14.4325 10.7656C13.4806 9.42853 12.0137 8.46978 10.3019 8.01529C11.1486 7.60572 11.8065 6.98163 12.1745 6.23886C12.5425 5.49609 12.6002 4.67571 12.3388 3.90371C12.0774 3.13171 11.5113 2.45078 10.7275 1.96548C9.94366 1.48018 8.98544 1.21735 7.99999 1.21735C7.01453 1.21735 6.05632 1.48018 5.2725 1.96548C4.48869 2.45078 3.92261 3.13171 3.6612 3.90371C3.39979 4.67571 3.4575 5.49609 3.82548 6.23886C4.19345 6.98163 4.85134 7.60572 5.69811 8.01529C3.98624 8.46927 2.51936 9.42803 1.56749 10.7656C1.53258 10.8118 1.50943 10.8633 1.49939 10.9169C1.48936 10.9706 1.49265 11.0253 1.50906 11.0779C1.52548 11.1305 1.55469 11.1798 1.59498 11.2231C1.63527 11.2664 1.68581 11.3026 1.74363 11.3298C1.80144 11.3569 1.86536 11.3744 1.93162 11.3811C1.99787 11.3878 2.06511 11.3837 2.12937 11.369C2.19364 11.3543 2.25362 11.3293 2.30579 11.2954C2.35796 11.2615 2.40125 11.2195 2.43311 11.1719C3.61061 9.51842 5.69186 8.53123 7.99999 8.53123C10.3081 8.53123 12.3894 9.51842 13.5669 11.1719C13.5987 11.2195 13.642 11.2615 13.6942 11.2954C13.7463 11.3293 13.8063 11.3543 13.8706 11.369C13.9349 11.3837 14.0021 11.3878 14.0684 11.3811C14.1346 11.3744 14.1985 11.3569 14.2563 11.3298C14.3142 11.3026 14.3647 11.2664 14.405 11.2231C14.4453 11.1798 14.4745 11.1305 14.4909 11.0779C14.5073 11.0253 14.5106 10.9706 14.5006 10.9169C14.4905 10.8633 14.4674 10.8118 14.4325 10.7656ZM4.49999 4.87498C4.49999 4.31254 4.70526 3.76273 5.08984 3.29508C5.47443 2.82742 6.02105 2.46293 6.66059 2.2477C7.30014 2.03246 8.00387 1.97614 8.6828 2.08587C9.36174 2.1956 9.98538 2.46644 10.4749 2.86414C10.9643 3.26185 11.2977 3.76856 11.4327 4.32019C11.5678 4.87182 11.4985 5.44361 11.2336 5.96323C10.9687 6.48286 10.5201 6.92699 9.94448 7.23947C9.36891 7.55195 8.69222 7.71873 7.99999 7.71873C7.07203 7.71792 6.18237 7.41805 5.52621 6.88492C4.87005 6.35179 4.50098 5.62894 4.49999 4.87498Z" fill="white"/>
</g>
</svg>
