<svg width="41" height="40" viewBox="0 0 41 40" fill="none" xmlns="http://www.w3.org/2000/svg">
<g id="icons">
<path id="Vector" d="M20.8014 6.25C17.8347 6.25 14.9346 7.12973 12.4679 8.77796C10.0012 10.4262 8.07857 12.7689 6.94325 15.5097C5.80794 18.2506 5.51089 21.2666 6.08966 24.1764C6.66844 27.0861 8.09705 29.7588 10.1948 31.8566C12.2926 33.9544 14.9654 35.383 17.8751 35.9618C20.7848 36.5406 23.8008 36.2435 26.5417 35.1082C29.2826 33.9729 31.6253 32.0503 33.2735 29.5836C34.9217 27.1168 35.8014 24.2167 35.8014 21.25C35.7969 17.2731 34.2151 13.4605 31.403 10.6484C28.591 7.83636 24.7783 6.25455 20.8014 6.25ZM20.8014 33.75C18.3292 33.75 15.9124 33.0169 13.8568 31.6434C11.8012 30.2699 10.199 28.3176 9.25295 26.0335C8.30685 23.7495 8.05931 21.2361 8.54163 18.8114C9.02394 16.3866 10.2145 14.1593 11.9626 12.4112C13.7108 10.663 15.9381 9.4725 18.3628 8.99018C20.7876 8.50787 23.3009 8.75541 25.585 9.70151C27.8691 10.6476 29.8213 12.2498 31.1948 14.3054C32.5683 16.361 33.3014 18.7777 33.3014 21.25C33.2977 24.5641 31.9796 27.7413 29.6362 30.0847C27.2928 32.4281 24.1155 33.7463 20.8014 33.75ZM27.9358 14.1156C28.052 14.2317 28.1442 14.3696 28.2071 14.5213C28.2701 14.6731 28.3024 14.8357 28.3024 15C28.3024 15.1643 28.2701 15.3269 28.2071 15.4787C28.1442 15.6304 28.052 15.7683 27.9358 15.8844L21.6858 22.1344C21.5697 22.2505 21.4318 22.3426 21.2801 22.4055C21.1283 22.4683 20.9657 22.5007 20.8014 22.5007C20.6372 22.5007 20.4746 22.4683 20.3228 22.4055C20.1711 22.3426 20.0332 22.2505 19.9171 22.1344C19.8009 22.0182 19.7088 21.8804 19.646 21.7286C19.5831 21.5769 19.5508 21.4142 19.5508 21.25C19.5508 21.0858 19.5831 20.9231 19.646 20.7714C19.7088 20.6196 19.8009 20.4818 19.9171 20.3656L26.1671 14.1156C26.2832 13.9994 26.421 13.9072 26.5728 13.8443C26.7245 13.7814 26.8872 13.749 27.0514 13.749C27.2157 13.749 27.3784 13.7814 27.5301 13.8443C27.6819 13.9072 27.8197 13.9994 27.9358 14.1156ZM15.8014 2.5C15.8014 2.16848 15.9331 1.85054 16.1676 1.61612C16.402 1.3817 16.7199 1.25 17.0514 1.25H24.5514C24.883 1.25 25.2009 1.3817 25.4353 1.61612C25.6698 1.85054 25.8014 2.16848 25.8014 2.5C25.8014 2.83152 25.6698 3.14946 25.4353 3.38388C25.2009 3.6183 24.883 3.75 24.5514 3.75H17.0514C16.7199 3.75 16.402 3.6183 16.1676 3.38388C15.9331 3.14946 15.8014 2.83152 15.8014 2.5Z" fill="#5D2C02"/>
</g>
</svg>
