<svg width="41" height="40" viewBox="0 0 41 40" fill="none" xmlns="http://www.w3.org/2000/svg">
<g id="icons">
<path id="Vector" d="M32.9631 12.6046C31.3428 10.9807 29.417 9.69349 27.2969 8.81737C25.1767 7.94125 22.904 7.4935 20.61 7.49995H20.5475C10.9334 7.53276 3.10999 15.4687 3.10999 25.1765V28.7499C3.10999 29.413 3.37338 30.0489 3.84222 30.5177C4.31106 30.9866 4.94694 31.2499 5.60999 31.2499H35.61C36.273 31.2499 36.9089 30.9866 37.3778 30.5177C37.8466 30.0489 38.11 29.413 38.11 28.7499V24.9999C38.1164 22.6959 37.6647 20.4135 36.7811 18.2855C35.8975 16.1576 34.5997 14.2265 32.9631 12.6046ZM35.61 28.7499H19.3147L27.8709 16.9843C28.0661 16.7162 28.1468 16.3815 28.0952 16.0539C28.0436 15.7263 27.864 15.4326 27.5959 15.2374C27.3278 15.0423 26.9931 14.9616 26.6655 15.0132C26.3379 15.0647 26.0442 15.2443 25.8491 15.5124L16.2225 28.7499H5.60999V25.1765C5.60999 24.6953 5.63342 24.2203 5.67717 23.7499H9.35999C9.69151 23.7499 10.0094 23.6183 10.2439 23.3838C10.4783 23.1494 10.61 22.8315 10.61 22.4999C10.61 22.1684 10.4783 21.8505 10.2439 21.6161C10.0094 21.3816 9.69151 21.2499 9.35999 21.2499H6.12092C7.73342 15.1781 12.9959 10.5874 19.36 10.0531V13.7499C19.36 14.0815 19.4917 14.3994 19.7261 14.6338C19.9605 14.8683 20.2785 14.9999 20.61 14.9999C20.9415 14.9999 21.2595 14.8683 21.4939 14.6338C21.7283 14.3994 21.86 14.0815 21.86 13.7499V10.0515C24.961 10.3125 27.9044 11.5301 30.2836 13.5361C32.6627 15.5422 34.3601 18.2376 35.1412 21.2499H31.86C31.5285 21.2499 31.2105 21.3816 30.9761 21.6161C30.7417 21.8505 30.61 22.1684 30.61 22.4999C30.61 22.8315 30.7417 23.1494 30.9761 23.3838C31.2105 23.6183 31.5285 23.7499 31.86 23.7499H35.5584C35.5912 24.164 35.61 24.5796 35.61 24.9999V28.7499Z" fill="#5D2C02"/>
</g>
</svg>
