<svg width="41" height="40" viewBox="0 0 41 40" fill="none" xmlns="http://www.w3.org/2000/svg">
<g id="icons">
<path id="Vector" d="M38.6543 23.5C38.523 23.5985 38.3735 23.6701 38.2145 23.7109C38.0555 23.7516 37.89 23.7606 37.7275 23.7374C37.565 23.7142 37.4087 23.6592 37.2674 23.5756C37.1262 23.492 37.0028 23.3813 36.9043 23.25C36.1509 22.2373 35.1702 21.4156 34.0412 20.8511C32.9122 20.2866 31.6665 19.9951 30.4043 20C30.1585 20 29.9181 19.9275 29.7133 19.7916C29.5085 19.6557 29.3483 19.4624 29.2527 19.2359C29.1878 19.0821 29.1544 18.9169 29.1544 18.75C29.1544 18.5831 29.1878 18.4178 29.2527 18.2641C29.3483 18.0376 29.5085 17.8443 29.7133 17.7084C29.9181 17.5725 30.1585 17.5 30.4043 17.5C31.1056 17.4999 31.7929 17.3032 32.3881 16.9321C32.9832 16.561 33.4624 16.0304 33.7711 15.4007C34.0798 14.7709 34.2058 14.0672 34.1346 13.3695C34.0634 12.6717 33.798 12.0079 33.3685 11.4535C32.939 10.899 32.3626 10.4761 31.7048 10.2328C31.0469 9.98954 30.3341 9.93561 29.6471 10.0772C28.9602 10.2187 28.3267 10.5501 27.8187 11.0336C27.3106 11.5171 26.9484 12.1334 26.773 12.8125C26.732 12.9715 26.66 13.1209 26.5613 13.2521C26.4625 13.3833 26.3389 13.4938 26.1974 13.5772C26.0559 13.6607 25.8994 13.7154 25.7368 13.7383C25.5742 13.7613 25.4086 13.752 25.2496 13.7109C25.0906 13.6699 24.9412 13.5979 24.81 13.4992C24.6788 13.4004 24.5683 13.2767 24.4849 13.1353C24.4014 12.9938 24.3467 12.8373 24.3237 12.6747C24.3008 12.5121 24.3101 12.3465 24.3512 12.1875C24.5945 11.2458 25.0543 10.3739 25.694 9.64117C26.3336 8.90844 27.1354 8.33511 28.0356 7.96679C28.9358 7.59848 29.9095 7.44534 30.8793 7.51957C31.8491 7.59381 32.7882 7.89335 33.6219 8.39439C34.4556 8.89542 35.1608 9.58411 35.6814 10.4056C36.2021 11.2272 36.5238 12.1589 36.621 13.1267C36.7183 14.0944 36.5883 15.0715 36.2414 15.9802C35.8945 16.8889 35.3404 17.7041 34.623 18.3609C36.3227 19.0969 37.8003 20.2647 38.909 21.7484C39.0075 21.8801 39.079 22.0299 39.1195 22.1892C39.16 22.3486 39.1687 22.5143 39.145 22.6771C39.1214 22.8398 39.0658 22.9962 38.9816 23.1374C38.8974 23.2786 38.7862 23.4018 38.6543 23.5ZM30.2355 33.125C30.326 33.2673 30.3867 33.4264 30.4141 33.5927C30.4414 33.7591 30.4349 33.9292 30.3947 34.093C30.3546 34.2567 30.2818 34.4107 30.1807 34.5455C30.0795 34.6804 29.9521 34.7934 29.8062 34.8778C29.6602 34.9622 29.4987 35.0161 29.3314 35.0365C29.164 35.0568 28.9943 35.0431 28.8324 34.9961C28.6705 34.9491 28.5197 34.8699 28.3892 34.7631C28.2587 34.6564 28.1512 34.5244 28.073 34.375C27.2856 33.0417 26.1641 31.9367 24.8193 31.1691C23.4745 30.4014 21.9528 29.9977 20.4043 29.9977C18.8558 29.9977 17.3341 30.4014 15.9892 31.1691C14.6444 31.9367 13.523 33.0417 12.7355 34.375C12.6574 34.5244 12.5498 34.6564 12.4193 34.7631C12.2888 34.8699 12.1381 34.9491 11.9762 34.9961C11.8143 35.0431 11.6446 35.0568 11.4772 35.0365C11.3098 35.0161 11.1483 34.9622 11.0024 34.8778C10.8564 34.7934 10.729 34.6804 10.6279 34.5455C10.5267 34.4107 10.4539 34.2567 10.4138 34.093C10.3737 33.9292 10.3671 33.7591 10.3945 33.5927C10.4219 33.4264 10.4826 33.2673 10.573 33.125C11.7849 31.0428 13.6327 29.4042 15.8449 28.45C14.6001 27.4969 13.6853 26.1777 13.229 24.6779C12.7727 23.178 12.7979 21.5728 13.301 20.088C13.8042 18.6031 14.76 17.3133 16.0341 16.3998C17.3082 15.4863 18.8365 14.995 20.4043 14.995C21.972 14.995 23.5004 15.4863 24.7745 16.3998C26.0486 17.3133 27.0044 18.6031 27.5075 20.088C28.0107 21.5728 28.0359 23.178 27.5796 24.6779C27.1233 26.1777 26.2085 27.4969 24.9637 28.45C27.1759 29.4042 29.0237 31.0428 30.2355 33.125ZM20.4043 27.5C21.3932 27.5 22.3599 27.2067 23.1821 26.6573C24.0044 26.1079 24.6452 25.327 25.0237 24.4134C25.4021 23.4998 25.5011 22.4944 25.3082 21.5245C25.1153 20.5546 24.6391 19.6637 23.9398 18.9645C23.2406 18.2652 22.3496 17.789 21.3797 17.5961C20.4098 17.4031 19.4045 17.5022 18.4909 17.8806C17.5772 18.259 16.7963 18.8999 16.2469 19.7221C15.6975 20.5444 15.4043 21.5111 15.4043 22.5C15.4043 23.8261 15.9311 25.0978 16.8687 26.0355C17.8064 26.9732 19.0782 27.5 20.4043 27.5ZM11.6543 18.75C11.6543 18.4185 11.5226 18.1005 11.2882 17.8661C11.0537 17.6317 10.7358 17.5 10.4043 17.5C9.70292 17.4999 9.01563 17.3032 8.42048 16.9321C7.82534 16.561 7.34618 16.0304 7.03746 15.4007C6.72873 14.7709 6.6028 14.0672 6.67397 13.3695C6.74514 12.6717 7.01056 12.0079 7.44007 11.4535C7.86959 10.899 8.446 10.4761 9.10381 10.2328C9.76163 9.98954 10.4745 9.93561 11.1614 10.0772C11.8483 10.2187 12.4818 10.5501 12.9899 11.0336C13.4979 11.5171 13.8602 12.1334 14.0355 12.8125C14.1184 13.1337 14.3255 13.4087 14.6112 13.5772C14.8969 13.7457 15.2378 13.7938 15.559 13.7109C15.8801 13.6281 16.1552 13.421 16.3237 13.1353C16.4922 12.8496 16.5403 12.5087 16.4574 12.1875C16.214 11.2458 15.7542 10.3739 15.1146 9.64117C14.475 8.90844 13.6732 8.33511 12.773 7.96679C11.8728 7.59848 10.899 7.44534 9.92922 7.51957C8.95942 7.59381 8.02033 7.89335 7.18667 8.39439C6.35301 8.89542 5.64779 9.58411 5.12713 10.4056C4.60646 11.2272 4.28473 12.1589 4.18751 13.1267C4.0903 14.0944 4.2203 15.0715 4.56716 15.9802C4.91403 16.8889 5.46818 17.7041 6.18553 18.3609C4.48754 19.0976 3.01165 20.2653 1.90428 21.7484C1.70516 22.0136 1.61956 22.3471 1.66629 22.6754C1.71303 23.0038 1.88828 23.3001 2.1535 23.4992C2.41872 23.6983 2.75217 23.7839 3.08051 23.7372C3.40884 23.6905 3.70516 23.5152 3.90428 23.25C4.6577 22.2373 5.63837 21.4156 6.76734 20.8511C7.89632 20.2866 9.14206 19.9951 10.4043 20C10.7358 20 11.0537 19.8683 11.2882 19.6339C11.5226 19.3995 11.6543 19.0815 11.6543 18.75Z" fill="#5D2C02"/>
</g>
</svg>
