<svg width="40" height="40" viewBox="0 0 40 40" fill="none" xmlns="http://www.w3.org/2000/svg">
<g id="icons">
<path id="Vector" d="M20.007 3.75C16.7931 3.75 13.6513 4.70305 10.979 6.48862C8.30671 8.27419 6.22391 10.8121 4.99398 13.7814C3.76406 16.7507 3.44226 20.018 4.06927 23.1702C4.69628 26.3224 6.24394 29.2179 8.51654 31.4905C10.7891 33.7631 13.6846 35.3107 16.8368 35.9378C19.989 36.5648 23.2563 36.243 26.2256 35.013C29.1949 33.7831 31.7328 31.7003 33.5184 29.028C35.304 26.3557 36.257 23.2139 36.257 20C36.2525 15.6916 34.539 11.561 31.4925 8.51454C28.446 5.46806 24.3154 3.75455 20.007 3.75ZM20.007 33.75C17.2875 33.75 14.6291 32.9436 12.3679 31.4327C10.1068 29.9218 8.34439 27.7744 7.30368 25.2619C6.26298 22.7494 5.99068 19.9847 6.52123 17.3175C7.05178 14.6503 8.36134 12.2003 10.2843 10.2773C12.2073 8.35431 14.6573 7.04475 17.3245 6.5142C19.9918 5.98366 22.7564 6.25595 25.2689 7.29666C27.7814 8.33736 29.9289 10.0997 31.4397 12.3609C32.9506 14.6221 33.757 17.2805 33.757 20C33.7529 23.6455 32.3029 27.1404 29.7252 29.7182C27.1474 32.2959 23.6525 33.7459 20.007 33.75ZM26.257 23.125C26.257 24.2853 25.7961 25.3981 24.9756 26.2186C24.1551 27.0391 23.0423 27.5 21.882 27.5H21.257V28.75C21.257 29.0815 21.1253 29.3995 20.8909 29.6339C20.6565 29.8683 20.3385 30 20.007 30C19.6755 30 19.3576 29.8683 19.1231 29.6339C18.8887 29.3995 18.757 29.0815 18.757 28.75V27.5H16.257C15.9255 27.5 15.6076 27.3683 15.3731 27.1339C15.1387 26.8995 15.007 26.5815 15.007 26.25C15.007 25.9185 15.1387 25.6005 15.3731 25.3661C15.6076 25.1317 15.9255 25 16.257 25H21.882C22.3793 25 22.8562 24.8025 23.2079 24.4508C23.5595 24.0992 23.757 23.6223 23.757 23.125C23.757 22.6277 23.5595 22.1508 23.2079 21.7992C22.8562 21.4475 22.3793 21.25 21.882 21.25H18.132C16.9717 21.25 15.8589 20.7891 15.0384 19.9686C14.218 19.1481 13.757 18.0353 13.757 16.875C13.757 15.7147 14.218 14.6019 15.0384 13.7814C15.8589 12.9609 16.9717 12.5 18.132 12.5H18.757V11.25C18.757 10.9185 18.8887 10.6005 19.1231 10.3661C19.3576 10.1317 19.6755 10 20.007 10C20.3385 10 20.6565 10.1317 20.8909 10.3661C21.1253 10.6005 21.257 10.9185 21.257 11.25V12.5H23.757C24.0885 12.5 24.4065 12.6317 24.6409 12.8661C24.8753 13.1005 25.007 13.4185 25.007 13.75C25.007 14.0815 24.8753 14.3995 24.6409 14.6339C24.4065 14.8683 24.0885 15 23.757 15H18.132C17.6347 15 17.1578 15.1975 16.8062 15.5492C16.4546 15.9008 16.257 16.3777 16.257 16.875C16.257 17.3723 16.4546 17.8492 16.8062 18.2008C17.1578 18.5525 17.6347 18.75 18.132 18.75H21.882C23.0423 18.75 24.1551 19.2109 24.9756 20.0314C25.7961 20.8519 26.257 21.9647 26.257 23.125Z" fill="#5D2C02"/>
</g>
</svg>
